<?xml version="1.0" standalone="no"?>
<!DOCTYPE svg PUBLIC "-//W3C//DTD SVG 20010904//EN"
 "https://www.w3.org/TR/2001/REC-SVG-20010904/DTD/svg10.dtd">
<svg version="1.0" xmlns="https://www.w3.org/2000/svg"
 width="649.000000pt" height="649.000000pt" viewBox="0 0 649.000000 649.000000"
 preserveAspectRatio="xMidYMid meet">
<metadata>
Created by potrace 1.11, written by Peter Selinger 2001-2013
</metadata>
<g transform="translate(0.000000,649.000000) scale(0.100000,-0.100000)"
fill="#000000" stroke="none">
<path d="M3318 6463 c-8 -10 -21 -33 -29 -50 -8 -18 -17 -33 -21 -33 -5 0 -8
-9 -8 -19 0 -11 -4 -21 -9 -23 -8 -3 -135 -257 -384 -768 -52 -107 -101 -211
-110 -230 -8 -19 -24 -56 -36 -82 -11 -26 -21 -54 -21 -61 0 -7 -4 -17 -8 -22
-9 -11 -42 -116 -63 -200 -17 -67 -17 -259 0 -315 27 -88 161 -373 237 -505
16 -27 49 -89 72 -136 l43 -86 -28 -59 -28 -59 -50 -3 c-86 -6 -107 3 -142 58
-18 27 -33 54 -33 60 0 5 -4 10 -10 10 -5 0 -10 5 -10 11 0 5 -18 37 -40 69
-22 32 -40 64 -40 69 0 6 -4 11 -10 11 -5 0 -10 5 -10 11 0 5 -18 37 -40 69
-22 32 -40 62 -40 65 0 3 -9 15 -20 27 -11 12 -20 28 -20 35 0 7 -4 13 -10 13
-5 0 -10 5 -10 11 0 10 -56 98 -70 109 -3 3 -17 21 -30 40 -13 19 -27 37 -30
40 -3 3 -17 20 -29 39 -62 87 -332 364 -344 352 -6 -6 -11 -111 -12 -238 -1
-125 -7 -264 -13 -308 -49 -354 -43 -528 23 -641 29 -49 90 -110 127 -127 16
-6 28 -15 28 -19 0 -5 9 -8 19 -8 11 0 23 -4 26 -10 3 -5 17 -10 30 -10 13 0
27 -5 30 -10 3 -5 25 -10 49 -10 23 0 46 -4 51 -9 13 -12 134 -21 140 -11 5 8
-57 114 -85 147 -5 7 -10 19 -10 28 0 8 -4 15 -10 15 -5 0 -10 9 -10 20 0 11
-4 20 -10 20 -5 0 -10 11 -10 24 0 14 -4 28 -10 31 -13 8 -13 342 0 350 6 3
10 24 10 46 0 43 7 47 36 21 10 -9 39 -34 64 -54 30 -24 91 -103 173 -225 265
-393 309 -451 379 -498 56 -37 123 -35 187 7 65 43 84 80 78 149 -8 88 -17
119 -56 197 -11 24 -21 50 -21 58 0 8 -4 14 -10 14 -5 0 -10 6 -10 13 0 7 -11
35 -24 63 -27 55 -51 110 -60 137 -4 12 8 31 38 60 24 24 66 77 93 118 76 112
119 146 263 215 30 14 63 30 72 35 10 5 25 9 33 9 8 0 15 5 15 10 0 6 10 10
23 10 13 0 28 5 35 12 9 9 12 5 12 -19 0 -18 -4 -35 -10 -38 -5 -3 -10 -21
-10 -39 0 -17 -4 -36 -8 -42 -4 -5 -14 -27 -21 -49 -16 -50 -31 -83 -97 -220
-30 -61 -54 -116 -54 -123 0 -7 -4 -12 -10 -12 -5 0 -10 -6 -10 -13 0 -8 -22
-58 -50 -111 -63 -124 -87 -194 -95 -276 -8 -83 3 -111 62 -154 42 -31 56 -36
106 -36 32 0 70 6 85 14 56 30 165 167 342 431 223 333 226 335 405 335 65 0
116 -4 120 -10 3 -5 33 -10 65 -10 32 0 62 -4 65 -10 3 -5 28 -10 55 -10 27 0
52 -4 55 -10 3 -5 26 -10 50 -10 24 0 47 -4 50 -10 3 -5 26 -10 50 -10 24 0
47 -4 50 -10 3 -5 30 -10 59 -10 28 0 57 -5 63 -11 15 -15 430 -16 445 -1 7 7
22 12 35 12 13 0 31 4 41 9 9 5 31 15 47 22 74 33 225 161 225 191 0 6 13 22
28 36 15 15 39 43 52 62 13 19 31 42 40 50 9 8 27 31 40 50 13 19 27 37 30 40
3 3 17 21 30 40 14 19 37 48 52 64 16 16 28 33 28 38 0 4 14 22 30 40 17 17
30 40 30 50 0 18 -5 19 -47 14 -27 -3 -160 -13 -298 -21 -1030 -63 -1245 -90
-1432 -182 -95 -47 -181 -118 -219 -181 -10 -18 -22 -32 -26 -32 -4 0 -8 -6
-8 -12 0 -7 -14 -29 -30 -48 -16 -19 -30 -41 -30 -47 0 -7 -4 -13 -8 -13 -5 0
-15 -12 -23 -27 -8 -16 -22 -37 -31 -47 -10 -11 -18 -26 -18 -33 0 -7 -4 -13
-8 -13 -5 0 -15 -12 -23 -27 -8 -16 -22 -37 -31 -47 -10 -11 -18 -26 -18 -33
0 -7 -4 -13 -10 -13 -5 0 -10 -5 -10 -11 0 -5 -18 -37 -40 -69 -22 -32 -40
-64 -40 -69 0 -6 -3 -11 -8 -11 -4 0 -12 -10 -17 -22 -9 -21 -18 -23 -87 -26
l-78 -3 -25 52 c-14 29 -25 63 -25 77 0 22 147 325 306 632 73 140 109 224
148 344 58 181 84 306 64 306 -7 0 -44 -22 -84 -50 -75 -52 -187 -117 -216
-127 -10 -3 -18 -9 -18 -14 0 -5 -7 -9 -15 -9 -8 0 -23 -4 -33 -9 -73 -37
-146 -71 -154 -71 -6 0 -47 -17 -91 -38 -45 -21 -103 -48 -128 -59 -125 -57
-268 -180 -300 -258 -44 -105 -46 -134 -19 -260 18 -82 23 -125 13 -125 -4 0
-14 15 -21 33 -17 39 -51 116 -63 139 -5 10 -9 46 -9 81 0 64 16 113 45 137 8
7 15 18 15 25 0 8 3 15 8 17 4 2 30 35 57 73 27 39 72 95 100 126 213 238 374
436 375 461 0 4 12 24 26 45 30 45 74 138 74 158 0 7 4 16 9 19 23 15 39 240
21 301 -32 112 -75 237 -82 241 -4 3 -8 12 -8 20 0 8 -10 36 -21 62 -12 26
-28 63 -36 82 -8 19 -26 60 -40 90 -14 30 -29 64 -33 75 -24 60 -42 95 -49 95
-4 0 -15 -8 -23 -17z"/>
<path d="M488 4955 c-9 -9 2 -35 24 -59 10 -11 18 -26 18 -33 0 -7 4 -13 8
-13 5 0 15 -12 23 -27 8 -16 22 -37 32 -47 9 -11 17 -26 17 -33 0 -7 4 -13 8
-13 5 0 15 -12 23 -27 8 -16 22 -37 32 -47 9 -11 17 -26 17 -33 0 -7 4 -13 9
-13 5 0 12 -8 16 -19 3 -10 17 -31 30 -47 14 -16 25 -35 25 -41 0 -7 4 -13 8
-13 5 0 15 -12 23 -27 8 -16 22 -37 32 -47 9 -11 17 -26 17 -33 0 -7 4 -13 8
-13 5 0 15 -12 23 -27 8 -16 17 -30 20 -33 3 -3 70 -102 149 -220 79 -118 146
-217 150 -220 3 -3 17 -21 30 -40 13 -19 27 -37 30 -40 3 -3 25 -30 50 -60 59
-72 156 -169 200 -200 19 -13 37 -27 40 -30 11 -11 51 -30 65 -30 8 0 15 -4
15 -10 0 -5 13 -10 29 -10 17 0 32 -4 35 -9 11 -17 180 -34 491 -51 99 -5 215
-12 257 -16 l77 -6 39 -52 40 -52 -41 -66 -41 -66 -201 -6 c-362 -11 -567 -26
-755 -55 -36 -6 -85 -13 -110 -17 -25 -3 -49 -10 -55 -15 -5 -5 -24 -9 -41 -9
-18 0 -35 -4 -38 -9 -3 -5 -20 -11 -38 -14 -76 -14 -98 -20 -108 -32 -17 -20
-3 -38 48 -65 26 -13 49 -27 52 -30 3 -3 16 -11 29 -18 13 -8 40 -23 60 -34
36 -20 232 -152 261 -175 44 -36 229 -169 268 -194 25 -16 82 -43 126 -60 66
-26 94 -31 166 -31 48 0 95 4 106 10 10 5 37 18 58 28 63 30 271 243 263 268
-2 7 -57 13 -138 17 -158 7 -179 11 -264 50 -37 16 -168 103 -211 138 -18 14
-42 34 -55 43 -21 17 -21 18 -3 23 10 4 27 11 36 16 10 5 29 9 42 9 14 0 27 4
30 9 9 14 171 32 446 51 274 18 273 18 405 56 41 12 70 28 93 51 31 33 32 38
32 114 l0 80 -48 48 c-36 35 -59 50 -88 55 -21 4 -64 11 -94 17 -63 11 -216
25 -440 39 -201 12 -266 22 -313 44 -44 22 -117 101 -117 127 0 11 -4 19 -10
19 -5 0 -10 9 -10 20 0 11 -4 20 -10 20 -5 0 -10 9 -10 20 0 11 -4 20 -10 20
-5 0 -10 7 -10 15 0 8 -9 30 -20 50 -11 20 -20 44 -20 55 0 10 -4 22 -10 25
-5 3 -10 17 -10 31 0 13 -4 24 -10 24 -5 0 -10 14 -10 30 0 17 -4 30 -10 30
-5 0 -10 14 -10 30 0 17 -4 30 -10 30 -5 0 -10 14 -10 30 0 17 -4 30 -10 30
-5 0 -10 11 -10 24 0 14 -4 28 -10 31 -5 3 -10 17 -10 30 0 13 -4 26 -8 29 -4
3 -14 28 -22 55 -7 28 -17 51 -22 51 -4 0 -8 9 -8 20 0 11 -4 20 -10 20 -5 0
-10 7 -10 15 0 8 -9 30 -20 50 -11 19 -30 52 -41 73 -28 49 -61 96 -71 100 -4
2 -8 9 -8 15 0 11 -79 91 -128 130 -13 10 -44 27 -70 39 -26 11 -55 25 -64 29
-10 5 -31 9 -47 9 -17 0 -32 4 -35 9 -3 5 -29 11 -58 15 -29 3 -84 11 -123 16
-376 55 -457 65 -467 55z"/>
<path d="M4205 4132 c-82 -24 -161 -79 -231 -160 -33 -37 -61 -69 -64 -72 -20
-17 -50 -72 -45 -80 4 -6 66 -10 155 -10 88 0 151 -4 155 -10 3 -5 14 -10 25
-10 22 0 114 -48 176 -92 25 -18 53 -37 62 -43 9 -5 27 -20 41 -33 15 -12 34
-25 44 -28 20 -6 22 -20 5 -31 -22 -13 -82 -33 -103 -33 -12 0 -25 -4 -30 -9
-14 -13 -184 -30 -495 -51 -166 -11 -292 -30 -355 -55 -74 -29 -110 -88 -101
-162 13 -111 19 -135 35 -140 9 -2 25 -8 36 -13 11 -4 38 -12 60 -18 22 -6 51
-14 65 -18 42 -11 160 -24 268 -30 85 -5 104 -9 112 -24 5 -10 16 -24 22 -32
31 -32 129 -233 144 -293 15 -61 1 -327 -21 -392 l-7 -22 -22 21 c-11 11 -32
27 -45 36 -30 20 -146 176 -283 378 -177 264 -272 372 -343 392 -77 22 -184
-41 -205 -119 -12 -44 -4 -165 11 -175 5 -3 9 -13 9 -22 0 -9 26 -71 59 -137
94 -191 104 -217 94 -235 -6 -8 -21 -16 -35 -18 -30 -4 -70 -42 -51 -49 17 -6
-70 -134 -133 -196 -27 -26 -74 -59 -104 -73 -30 -14 -72 -34 -93 -45 -22 -10
-45 -19 -53 -19 -8 0 -14 -4 -14 -10 0 -5 -7 -10 -15 -10 -8 0 -31 -9 -51 -20
-40 -23 -54 -19 -36 10 7 11 12 40 12 65 0 36 13 73 60 168 33 68 60 128 60
135 0 7 5 12 10 12 6 0 10 9 10 20 0 11 5 20 10 20 6 0 10 9 10 20 0 11 5 20
10 20 6 0 10 6 10 12 0 7 20 53 44 103 24 49 52 108 61 130 10 22 24 56 33 75
23 54 34 99 39 167 l5 62 -49 49 c-38 38 -58 50 -92 56 -53 8 -108 -1 -142
-25 -41 -29 -167 -191 -280 -359 -198 -295 -269 -380 -317 -380 -10 0 -23 -5
-29 -11 -12 -12 -137 -7 -248 11 -38 6 -90 13 -115 16 -25 3 -54 9 -65 14 -11
5 -36 11 -55 14 -19 3 -60 10 -90 16 -216 42 -297 52 -440 52 -137 0 -230 -9
-244 -23 -6 -5 -20 -9 -32 -9 -13 0 -26 -4 -29 -10 -3 -5 -15 -10 -26 -10 -10
0 -19 -4 -19 -10 0 -5 -5 -10 -11 -10 -30 0 -189 -136 -189 -163 0 -5 -13 -21
-28 -35 -15 -15 -39 -43 -52 -62 -13 -19 -31 -42 -40 -50 -9 -8 -27 -31 -40
-50 -13 -19 -27 -37 -30 -40 -3 -3 -17 -21 -30 -40 -13 -19 -37 -48 -52 -65
-15 -16 -28 -33 -28 -38 0 -4 -14 -22 -30 -39 -18 -19 -30 -40 -28 -52 3 -19
10 -21 83 -20 44 0 161 6 260 13 99 6 241 16 315 21 552 38 710 53 850 79 240
44 388 133 500 301 24 36 47 67 52 68 4 2 8 9 8 16 0 7 9 22 20 33 11 12 42
57 70 100 27 43 54 83 60 90 5 7 10 15 10 18 0 3 18 33 40 65 22 32 40 64 40
69 0 6 5 11 10 11 6 0 10 5 10 10 0 6 10 25 22 44 20 31 27 34 83 39 33 3 68
8 78 12 11 5 17 2 17 -6 0 -8 14 -41 30 -73 l30 -60 -142 -280 c-78 -155 -164
-326 -192 -381 -59 -116 -91 -189 -112 -254 -8 -25 -19 -54 -24 -63 -6 -10
-10 -27 -10 -37 0 -11 -4 -22 -9 -25 -5 -3 -11 -20 -14 -38 -3 -18 -11 -53
-17 -78 -7 -25 -13 -61 -13 -80 -2 -32 0 -35 23 -32 13 1 27 6 30 11 5 8 101
72 150 100 61 35 246 123 357 170 135 58 317 156 376 203 43 34 106 125 125
179 15 45 16 213 0 238 -12 20 -5 51 11 51 6 0 17 -17 26 -37 9 -21 21 -46 26
-55 5 -10 9 -27 9 -37 0 -11 5 -31 11 -45 15 -33 -8 -100 -63 -183 -15 -23
-28 -44 -28 -48 0 -3 -13 -20 -30 -38 -16 -18 -30 -36 -30 -40 0 -5 -18 -27
-39 -50 -22 -23 -50 -55 -63 -72 -13 -16 -47 -56 -77 -87 -29 -31 -61 -67 -69
-80 -9 -13 -34 -43 -57 -66 -22 -24 -44 -51 -49 -60 -5 -10 -12 -19 -16 -22
-29 -21 -148 -223 -181 -305 -28 -71 -54 -220 -46 -261 15 -73 19 -92 29 -129
11 -41 24 -77 39 -107 5 -10 9 -25 9 -33 0 -8 4 -23 9 -33 8 -16 17 -37 40
-94 15 -37 42 -100 66 -153 51 -113 65 -145 65 -153 0 -5 9 -17 19 -26 21 -19
41 -14 41 10 0 8 5 14 10 14 6 0 10 9 10 20 0 11 5 20 10 20 6 0 10 9 10 20 0
11 5 20 10 20 6 0 10 9 10 20 0 11 5 20 10 20 6 0 10 9 10 20 0 11 5 20 10 20
6 0 10 9 10 20 0 11 5 20 10 20 6 0 10 9 10 20 0 11 5 20 10 20 6 0 10 9 10
20 0 11 5 20 10 20 6 0 10 5 10 12 0 7 60 134 134 283 73 148 150 306 171 350
107 228 116 249 147 325 6 14 14 33 19 42 5 10 9 27 9 37 0 11 5 23 10 26 6 3
10 17 10 31 0 13 4 32 9 42 15 30 31 135 31 210 0 87 -18 158 -64 258 -20 42
-36 78 -36 81 0 10 -161 326 -180 353 -11 15 -20 31 -20 35 0 3 -13 26 -30 50
-30 44 -41 107 -20 120 6 3 10 19 10 35 0 16 5 32 10 35 6 3 10 15 10 26 0 13
4 18 12 13 7 -5 44 -11 82 -14 54 -4 71 -9 80 -24 6 -11 19 -29 29 -40 9 -11
17 -25 17 -32 0 -7 4 -14 8 -16 12 -4 232 -335 232 -348 0 -5 4 -10 9 -10 5 0
11 -8 14 -17 6 -18 37 -73 47 -83 3 -3 11 -17 19 -32 8 -16 18 -28 23 -28 4 0
8 -6 8 -13 0 -7 8 -22 18 -33 10 -10 28 -35 42 -54 13 -19 27 -37 30 -40 3 -3
25 -30 50 -60 54 -67 265 -280 277 -280 4 0 8 105 8 232 0 129 6 278 13 333
43 343 39 504 -14 612 -29 60 -114 153 -140 153 -8 0 -14 5 -14 10 0 6 -7 10
-15 10 -8 0 -24 5 -35 10 -11 6 -29 15 -40 20 -11 6 -33 10 -49 10 -16 0 -41
6 -55 14 -22 11 -24 15 -11 20 27 10 133 7 140 -4 3 -5 17 -10 31 -10 40 0
164 -62 164 -82 0 -10 5 -18 10 -18 6 0 10 -6 10 -14 0 -8 14 -40 30 -71 17
-31 30 -63 30 -71 0 -8 5 -14 10 -14 6 0 10 -9 10 -20 0 -11 5 -20 10 -20 6 0
10 -11 10 -24 0 -14 5 -28 10 -31 6 -3 10 -17 10 -30 0 -13 5 -27 10 -30 6 -3
10 -17 10 -30 0 -13 5 -27 10 -30 6 -3 10 -17 10 -30 0 -13 5 -27 10 -30 6 -3
10 -17 10 -30 0 -13 5 -27 10 -30 6 -3 10 -15 10 -26 0 -10 5 -28 10 -39 6
-11 15 -29 20 -40 6 -11 10 -29 10 -39 0 -11 5 -23 10 -26 6 -3 10 -17 10 -31
0 -13 5 -24 10 -24 6 0 10 -9 10 -20 0 -11 5 -20 10 -20 6 0 10 -9 10 -20 0
-11 5 -20 10 -20 6 0 10 -9 10 -20 0 -11 5 -20 10 -20 6 0 10 -9 10 -20 0 -11
4 -20 9 -20 5 0 11 -8 14 -17 6 -19 38 -74 47 -83 3 -3 17 -21 30 -40 65 -94
189 -183 297 -215 46 -13 208 -41 378 -65 44 -6 107 -15 140 -20 33 -5 90 -12
128 -16 62 -6 67 -5 67 13 0 11 -8 28 -17 39 -10 10 -24 31 -32 47 -8 15 -18
27 -23 27 -4 0 -8 6 -8 13 0 7 -8 22 -17 33 -10 10 -24 31 -32 47 -8 15 -18
27 -23 27 -4 0 -8 6 -8 13 0 6 -14 28 -30 47 -16 19 -30 41 -30 48 0 6 -4 12
-8 12 -5 0 -15 12 -23 28 -8 15 -22 36 -31 46 -10 11 -18 24 -18 28 0 5 -9 18
-20 30 -11 12 -20 28 -20 35 0 7 -4 13 -9 13 -5 0 -14 14 -21 30 -7 17 -16 30
-20 30 -4 0 -13 14 -20 30 -7 17 -16 30 -21 30 -4 0 -10 8 -14 19 -3 10 -17
31 -30 47 -14 16 -25 34 -25 41 0 6 -4 13 -8 15 -5 2 -46 59 -92 128 -46 69
-87 127 -92 128 -4 2 -8 9 -8 16 0 7 -8 21 -18 32 -11 11 -21 25 -23 31 -12
35 -266 303 -286 303 -7 0 -13 4 -13 8 0 20 -135 87 -189 95 -31 4 -90 12
-131 17 -77 11 -270 23 -532 36 l-147 7 -40 55 -41 55 22 36 c43 71 59 86 101
95 41 8 184 17 547 35 241 12 389 29 545 60 28 6 65 13 83 17 18 3 35 10 38
15 3 5 18 9 35 9 16 0 29 5 29 10 0 6 13 10 29 10 64 0 40 29 -64 80 -125 61
-242 136 -415 265 -219 163 -301 213 -398 244 -90 29 -149 32 -217 13z"/>
</g>
</svg>
